<svg width="76" height="80" viewBox="0 0 76 80" fill="none" xmlns="http://www.w3.org/2000/svg">
<path d="M36.7391 58.076C37.9475 58.0089 38.9544 57.9417 39.8943 57.8746C42.2438 57.8075 44.5262 57.6732 46.8758 57.7403C47.7485 57.7403 48.6883 57.9417 49.4939 58.2103C50.9707 58.8144 51.0379 60.0228 49.7624 60.8955C49.2925 61.2311 48.7555 61.4325 48.2184 61.5668C45.8689 62.1709 43.5864 62.8422 41.2369 63.3793C38.216 64.1177 35.128 64.252 32.04 63.9835C31.6372 63.9163 31.1673 63.8492 30.7645 63.7149C28.952 63.1108 28.3479 61.8353 29.0192 59.9556C32.3757 50.8259 35.7322 41.6291 39.0887 32.4322C39.9614 30.0827 40.6327 27.666 40.7669 25.1822C40.8341 23.9738 40.767 22.7655 40.6327 21.5571C40.5656 21.0872 40.4313 20.6173 40.1628 20.2145C39.6929 19.2747 38.9544 18.9391 38.0817 19.1404C37.209 19.3418 36.5377 20.1474 36.5377 21.0872C36.5377 22.2956 36.6049 23.5039 36.5377 24.7123C36.4706 25.4507 36.2692 26.2563 35.9336 26.9276C35.3294 28.0016 34.121 28.4716 32.9798 28.203C31.8386 27.9345 30.9659 26.9947 30.8317 25.7192C30.496 22.5641 32.6442 18.402 35.3965 16.858C38.753 14.9784 42.6466 15.7839 44.8619 19.0062C45.936 20.5502 46.473 22.2956 46.6744 24.1752C47.0101 26.7933 46.7415 29.4114 45.936 31.9623C44.8619 35.5202 43.7207 39.011 42.4452 42.5018C40.7669 47.268 38.9544 51.9 37.1419 56.6663C37.0748 57.069 36.9405 57.4718 36.7391 58.076Z" fill="#ADADAD"/>
<path d="M75.3388 37.6014C75.5402 50.6247 70.3712 67.273 57.9521 74.8587C48.2853 80.7661 36.0005 81.5046 25.5953 77.4768C18.4795 74.6573 12.3706 70.1596 7.47009 63.8493C3.5094 58.6803 -3.40501 45.9927 1.96541 29.3444C4.04645 22.8999 7.06732 16.9924 11.6322 12.159C23.6485 -0.595734 41.3037 -0.931386 47.6811 0.67974C54.1256 2.29087 60.1002 5.04321 64.8665 10.2122C71.7809 17.5966 75.4059 26.5249 75.3388 37.6014ZM39.357 73.7846C62.3826 71.5693 67.0146 58.6803 68.2901 40.3537C68.8272 33.775 67.8873 27.5318 64.7322 21.8258C58.3548 10.4136 48.4867 6.38581 36.6046 6.85572C19.285 7.32564 11.6322 18.6706 9.21548 28.6059C8.34279 31.3583 7.73861 36.3259 7.47009 39.2796C6.06035 63.5137 27.4749 74.3216 39.357 73.7846Z" fill="#ADADAD"/>
</svg>
