<svg width="76" height="80" viewBox="0 0 76 80" fill="none" xmlns="http://www.w3.org/2000/svg">
<path d="M38.8867 20.2815C38.7525 21.02 38.7525 21.6913 38.5511 22.3626C38.3497 23.0339 38.014 23.7723 37.6112 24.3094C36.8057 25.3163 35.396 25.5848 34.2547 25.1149C33.1135 24.645 32.3751 23.5709 32.4422 22.2955C32.5093 20.2815 33.7177 18.7376 35.1946 17.5963C35.6645 17.2607 36.4029 17.3278 37.0071 17.1264C41.3034 16.0523 44.5257 17.7977 47.0095 21.02C49.2248 23.8395 49.8961 27.2631 49.359 30.821C48.9563 33.5062 47.5465 35.5872 45.1298 36.997C44.9284 37.1312 44.6599 37.2655 44.5257 37.3998C44.9284 39.2123 45.4655 40.9577 45.734 42.7031C46.3382 46.9323 46.2711 51.1615 45.3312 55.3235C44.9284 57.0689 44.2571 58.7472 43.1831 60.2241C41.4377 62.6407 39.1552 64.0505 36.0672 63.9833C34.1876 63.9833 32.5765 63.2449 31.301 61.8352C30.0255 60.3583 29.0857 58.68 28.4815 56.8004C28.2801 56.2634 28.213 55.5921 28.213 55.055C28.3473 52.9068 30.4283 51.8999 32.0394 53.2425C32.9121 53.9138 33.4492 54.8536 34.1205 55.7934C34.4561 56.2634 34.6575 56.8675 34.9932 57.3374C35.5302 58.143 36.1344 58.2773 37.0071 57.8074C37.8798 57.3374 38.4168 56.599 38.6853 55.7263C39.1552 54.1823 39.6923 52.6383 39.8265 51.0943C40.0951 48.1406 40.0951 45.1197 40.1622 42.166C40.1622 41.5618 40.0279 40.8905 39.8937 40.2864C39.7594 39.4137 39.4238 38.8095 38.4168 38.541C37.4098 38.2725 36.8057 37.534 36.6714 36.4599C36.5371 35.3859 37.0071 34.5132 37.8798 33.9761C38.7525 33.4391 39.7594 32.9692 40.6992 32.5664C42.7131 31.7608 43.7872 30.2168 43.8544 28.1358C43.9215 26.7932 43.8544 25.4506 43.5858 24.1751C43.3844 22.8325 42.5117 21.7584 41.3705 20.9528C40.7664 20.1473 39.8937 19.8788 38.8867 20.2815Z" fill="#ADADAD"/>
<path d="M75.3388 37.6014C75.5402 50.6247 70.3711 67.273 57.952 74.8587C48.2853 80.7661 36.0004 81.5046 25.5952 77.4768C18.4794 74.6573 12.3706 70.1596 7.47008 63.8493C3.5094 58.6803 -3.40501 45.9927 1.96541 29.3444C4.04645 22.8999 7.06731 16.9924 11.6322 12.159C23.6485 -0.595734 41.3037 -0.931386 47.6811 0.67974C54.1256 2.29087 60.1002 5.04321 64.8664 10.2122C71.7809 17.5966 75.3388 26.5249 75.3388 37.6014ZM39.357 73.7846C62.3826 71.5693 67.0146 58.6803 68.2901 40.3537C68.8271 33.775 67.8873 27.5318 64.7322 21.8258C58.3548 10.4136 48.4867 6.38581 36.6046 6.85572C19.285 7.32564 11.6322 18.6706 9.21547 28.6059C8.34278 31.3583 7.7386 36.3259 7.47008 39.2796C5.99322 63.5137 27.4749 74.3216 39.357 73.7846Z" fill="#ADADAD"/>
</svg>
