<svg width="76" height="80" viewBox="0 0 76 80" fill="none" xmlns="http://www.w3.org/2000/svg">
<path d="M34.2278 43.3381C34.5632 37.1673 34.8985 30.9294 35.2339 24.7586C35.301 23.4842 35.5022 22.2098 35.7705 20.9354C35.9047 20.2647 36.24 19.5268 36.7095 18.9902C37.3803 18.1183 38.3193 17.85 39.3925 18.0512C40.4657 18.3195 41.1364 19.0573 41.4047 20.1305C41.4718 20.6 41.5389 21.1366 41.5389 21.6061C41.4047 28.0452 41.2706 34.4843 41.0694 40.9234C40.9352 45.7528 40.8011 50.5821 40.5328 55.4114C40.4657 57.0212 40.0632 58.5639 39.7279 60.1737C39.5937 60.7773 39.2584 61.381 38.8559 61.8505C37.5815 63.3932 35.301 62.9908 34.6302 61.1127C34.429 60.5761 34.362 59.9724 34.362 59.3688C34.0266 54.0029 33.9595 48.704 34.2278 43.3381Z" fill="#ADADAD"/>
<path d="M75.2097 37.6369C75.411 50.6493 70.2463 67.2836 57.8376 74.863C48.1789 80.7655 35.9044 81.5033 25.5079 77.4789C18.3981 74.6618 12.2943 70.1678 7.39795 63.8629C3.50765 58.6982 -3.40096 46.0212 1.96495 29.3198C4.04425 22.8807 7.06257 16.9781 11.6236 12.1488C23.6298 -0.595235 41.2703 -0.930605 47.6423 0.67917C54.0814 2.28895 60.051 5.03898 64.8133 10.2037C71.6548 17.6489 75.2768 26.5697 75.2097 37.6369ZM39.2581 73.7898C62.2645 71.5764 66.8926 58.6982 68.167 40.387C68.7036 33.8137 67.7645 27.5758 64.6121 21.8745C58.24 10.472 48.3801 6.44753 36.5081 6.91705C19.203 7.38657 11.5565 18.7221 9.14187 28.649C8.26991 31.3991 7.66624 36.3625 7.39795 39.3138C5.98939 63.5275 27.386 74.3264 39.2581 73.7898Z" fill="#ADADAD"/>
</svg>
