<svg width="186" height="28" viewBox="0 0 186 28" fill="none" xmlns="http://www.w3.org/2000/svg">
<path d="M181.061 13.716C181.061 13.9244 179.544 14.169 177.615 14.3616C176.708 14.4524 175.628 14.6441 174.334 14.7303C173.331 14.7905 172.209 14.8581 170.992 14.9313C169.954 14.985 168.789 14.8331 167.601 14.8849C166.543 14.9303 165.441 15.0498 164.268 15.0943C163.197 15.1323 162.079 15.1721 160.919 15.2128C159.839 15.248 158.693 15.0924 157.539 15.1267C156.452 15.1582 155.385 15.5759 154.235 15.6056C153.142 15.6158 152.019 15.625 150.871 15.6361C149.778 15.6723 148.657 15.7093 147.516 15.7473C146.418 15.7704 145.262 15.4157 144.122 15.4379C143.022 15.4592 141.917 15.6361 140.78 15.6556C139.678 15.675 138.572 15.8807 137.435 15.8983C136.332 15.9159 135.19 15.6204 134.057 15.6371C132.952 15.6528 131.857 16.0298 130.724 16.0446C129.617 16.0594 128.485 15.8733 127.352 15.8862C126.243 15.8992 125.115 15.738 123.983 15.751C122.873 15.763 121.763 15.9742 120.632 15.9853C119.52 15.9955 118.395 15.8946 117.264 15.9038C116.152 15.9131 115.026 15.7788 113.895 15.7871C112.784 15.7945 111.67 16.0418 110.541 16.0492C109.428 16.0557 108.302 15.8677 107.173 15.8733C106.06 15.8946 104.938 15.9168 103.811 15.939C102.695 15.9437 101.575 16.0965 100.447 16.1002C99.3326 16.103 98.2078 15.901 97.08 15.9029C95.9631 15.9047 94.8423 16.1697 93.7145 16.1706C92.5966 16.1715 91.4738 16.0761 90.346 16.0761C89.2182 16.0761 88.0954 16.2012 86.9776 16.1993C85.8498 16.1984 84.728 16.002 83.6111 16.0002C82.4833 15.9974 81.3635 15.8677 80.2476 15.8649C79.1188 15.8621 77.996 15.9529 76.8801 15.9483C75.7514 15.9437 74.6236 16.2178 73.5097 16.2123C72.3809 16.2076 71.2591 16.203 70.1462 16.1984C69.0164 16.2049 67.8936 16.2123 66.7807 16.2188C65.651 16.2113 64.5321 16.1206 63.4212 16.1113C62.2914 16.102 61.1875 15.7186 60.0766 15.7084C58.9458 15.6973 57.827 15.6862 56.7181 15.675C55.5863 15.663 54.4615 15.7325 53.3536 15.7195C52.2198 15.7065 51.0871 15.901 49.9782 15.8862C48.8434 15.8714 47.7365 15.651 46.6286 15.6352C45.4919 15.6361 44.368 15.6371 43.2621 15.638C42.1244 15.6195 40.9827 15.8557 39.8778 15.8362C38.739 15.8158 37.6411 15.537 36.5391 15.5157C35.3984 15.4935 34.2925 15.3397 33.1935 15.3157C32.0508 15.2916 30.9141 15.4398 29.8191 15.4148C28.6734 15.3935 27.5556 15.3731 26.4645 15.3527C25.3149 15.3231 24.1692 15.4824 23.0832 15.4509C21.9285 15.4166 20.8683 14.9998 19.7882 14.9646C18.6286 14.9257 17.4661 15.1739 16.3949 15.1332C15.2234 15.0896 14.0718 15.2101 13.0136 15.1637C11.8261 15.1119 10.7669 14.7997 9.72955 14.746C8.51233 14.6821 7.41336 14.583 6.41376 14.5163C5.12202 14.4302 4.01112 14.3755 3.10392 14.2847C1.17923 14.093 0.215393 13.9244 0.215393 13.7169C0.215393 13.5085 1.24779 13.477 3.17546 13.2844C4.08266 13.1936 5.03457 12.7055 6.32731 12.6203C7.33089 12.561 8.45967 12.4943 9.6759 12.423C10.7143 12.3692 11.8927 12.5721 13.0811 12.5202C14.1394 12.4739 15.2254 12.2599 16.3969 12.2155C17.4681 12.1757 18.6406 12.4684 19.8021 12.4294C20.8812 12.3943 21.9832 12.2646 23.1378 12.2303C24.2239 12.1988 25.3119 11.9321 26.4616 11.9015C27.5526 11.8728 28.7072 12.1469 29.8539 12.1192C30.9489 12.0932 32.0359 11.7811 33.1786 11.757C34.2756 11.7338 35.4252 12.0126 36.5659 11.9904C37.6659 11.9691 38.7718 11.8024 39.9096 11.782C41.0115 11.7625 42.1453 11.9191 43.282 11.9006C44.3849 11.883 45.4829 11.5921 46.6167 11.5754C47.7206 11.5467 48.8395 11.518 49.9712 11.4884C51.0781 11.4736 52.2079 11.6329 53.3407 11.6199C54.4486 11.6069 55.5764 11.7663 56.7091 11.7542C57.819 11.7422 58.923 11.3717 60.0537 11.3615C61.1646 11.3513 62.2964 11.5773 63.4272 11.569C64.5401 11.5597 65.6529 11.3411 66.7827 11.3337C67.8956 11.3263 69.0144 11.2253 70.1432 11.2188C71.2571 11.2124 72.3869 11.5717 73.5147 11.5662C74.6295 11.5606 75.7484 11.4458 76.8762 11.4411C77.992 11.4365 79.1119 11.2466 80.2397 11.2429C81.3555 11.2401 82.4803 11.5125 83.6081 11.5097C84.724 11.4902 85.8478 11.4708 86.9746 11.4513C88.0925 11.4504 89.2143 11.5671 90.3421 11.5671C91.4698 11.5671 92.5927 11.3216 93.7095 11.3235C94.8373 11.3244 95.9591 11.5115 97.075 11.5134C98.2028 11.5152 99.3276 11.3772 100.443 11.38C101.57 11.4087 102.694 11.4374 103.808 11.4652C104.937 11.4699 106.064 11.2438 107.178 11.2494C108.307 11.2438 109.429 11.2392 110.542 11.2337C111.672 11.2401 112.787 11.4347 113.899 11.4421C115.029 11.4495 116.153 11.3735 117.265 11.3828C118.393 11.4152 119.514 11.4467 120.622 11.4791C121.753 11.4893 122.864 11.6736 123.974 11.6857C125.105 11.7135 126.224 11.7412 127.332 11.769C128.465 11.782 129.609 11.4254 130.717 11.4411C131.852 11.456 132.962 11.6495 134.068 11.6653C135.205 11.682 136.319 11.7959 137.425 11.8135C138.563 11.832 139.702 11.6199 140.806 11.6394C141.945 11.6597 143.038 11.9997 144.139 12.021C145.281 12.0432 146.423 11.8283 147.522 11.8515C148.665 11.8765 149.805 11.7283 150.899 11.7551C152.044 11.782 153.111 12.2312 154.201 12.259C155.351 12.2794 156.469 12.2988 157.556 12.3174C158.711 12.3516 159.85 12.2405 160.93 12.2757C162.089 12.3146 163.246 12.1266 164.316 12.1673C165.488 12.2136 166.609 12.2581 167.668 12.2998C168.855 12.3516 169.91 12.6731 170.948 12.7277C172.165 12.7916 173.235 12.9676 174.235 13.0343C175.526 13.1204 176.789 12.8194 177.696 12.9092C179.623 13.1047 181.061 13.5085 181.061 13.716Z" fill="#ADADAD"/>
<path d="M152.265 0.186938C152.36 -0.0125889 152.902 -0.0381441 153.537 0.0434361C153.836 0.0817689 154.229 0.0473688 154.636 0.143692C154.951 0.217409 155.302 0.304886 155.677 0.411039C155.996 0.502448 156.257 0.808128 156.618 0.922144C156.94 1.02436 157.307 1.06171 157.659 1.18163C157.981 1.29269 158.317 1.40868 158.665 1.52859C158.987 1.64359 159.242 1.95025 159.584 2.07704C159.908 2.19597 160.4 1.94435 160.741 2.07311C161.063 2.19597 161.371 2.37584 161.71 2.50755C162.034 2.62255 162.376 2.74345 162.713 2.86336C163.035 2.99212 163.201 3.49143 163.536 3.62608C163.858 3.75779 164.251 3.7401 164.584 3.8777C164.906 4.01138 165.313 3.96715 165.644 4.10574C165.965 4.24039 166.155 4.68073 166.484 4.82128C166.805 4.9579 167.288 4.74855 167.616 4.89009C167.937 5.02867 168.174 5.36187 168.501 5.50538C168.822 5.64593 169.069 5.95456 169.395 6.09904C169.716 6.24058 170.127 6.19045 170.453 6.3369C170.774 6.4804 171.047 6.73104 171.372 6.87848C171.692 7.02296 171.951 7.30604 172.275 7.45347C172.595 7.59894 173.024 7.51539 173.347 7.66479C173.666 7.81124 173.9 8.14739 174.223 8.29778C174.541 8.44521 174.885 8.54645 175.207 8.69781C175.526 8.84721 175.914 8.85508 176.236 9.00644C176.554 9.15683 176.781 9.50575 177.102 9.65908C177.196 9.70331 177.626 9.83305 177.947 9.9107C178.292 9.99916 178.655 10.0975 178.974 10.2518C179.608 10.5584 180.141 10.929 180.758 11.2288C181.372 11.5266 182.169 11.7664 182.806 12.077C183.453 12.3915 183.734 12.7591 184.325 13.0481C184.681 13.2231 184.948 13.4049 185.215 13.5789C184.926 13.7322 184.651 13.8826 184.421 14.03C183.863 14.3868 183.472 14.7564 182.901 15.121C182.343 15.4778 182.164 15.9398 181.553 16.329C180.951 16.7133 180.354 17.0957 179.76 17.4741C179.168 17.8672 178.579 18.2574 177.995 18.6447C177.654 18.856 177.333 18.9504 177.025 19.1381C176.72 19.3239 176.21 19.1715 175.911 19.3534C175.605 19.5372 175.301 19.72 175.002 19.9008C174.695 20.0856 174.436 20.3402 174.135 20.5191C173.828 20.7019 173.637 21.0705 173.335 21.2484C173.026 21.4302 172.608 21.4233 172.305 21.6003C171.994 21.7811 171.717 22.0072 171.414 22.1811C171.102 22.36 170.933 22.7669 170.629 22.939C170.316 23.1169 169.867 23.0569 169.563 23.2269C169.247 23.4039 168.868 23.456 168.563 23.624C168.247 23.798 168.03 24.1273 167.725 24.2914C167.409 24.4703 167.103 24.6423 166.801 24.8123C166.479 24.9834 166.267 25.3225 165.961 25.4807C165.636 25.6488 165.119 25.4591 164.812 25.6134C164.483 25.7785 164.315 26.1992 164.008 26.3476C163.673 26.5098 163.436 26.8155 163.13 26.956C162.786 27.1143 162.328 27.018 162.023 27.1477C161.663 27.3 161.316 27.4003 161.013 27.5133C160.622 27.6588 160.297 27.8003 160.005 27.876C159.386 28.0353 159.035 28.051 158.917 27.8652C158.799 27.6794 159.054 27.474 159.456 26.9708C159.645 26.7339 159.619 26.1343 159.914 25.8355C160.142 25.6046 160.402 25.35 160.689 25.0836C160.933 24.8566 161.361 24.8359 161.647 24.5853C161.901 24.3622 162.067 23.9838 162.352 23.7439C162.613 23.5238 163.09 23.5837 163.376 23.3498C163.642 23.1326 163.86 22.8269 164.147 22.5989C164.417 22.3836 164.554 21.959 164.841 21.7349C165.114 21.5216 165.575 21.5678 165.863 21.3457C166.139 21.1344 166.25 20.6695 166.539 20.4503C166.816 20.2409 167.279 20.293 167.569 20.0768C167.849 19.8684 168.047 19.5303 168.337 19.316C168.619 19.1096 169.007 19.0536 169.298 18.8423C169.58 18.6368 169.706 18.1886 169.997 17.9783C170.281 17.7748 170.545 17.5321 170.837 17.3247C171.122 17.1212 171.512 17.0701 171.804 16.8627C172.09 16.6612 172.48 16.6091 172.774 16.4037C173.061 16.2022 173.144 15.6823 173.436 15.4788C173.726 15.2783 174.154 15.2871 174.449 15.0847C174.73 14.891 174.929 14.4861 175.186 14.3101C175.199 14.2915 175.13 14.2099 175.119 14.2079C175.094 14.2158 175.514 14.3966 175.567 14.3553C175.607 14.3229 175.471 14.2649 175.484 14.2512C175.514 14.2276 175.18 14.203 175.166 14.2079C175.23 14.203 175.302 14.1981 175.383 14.1922C175.541 14.1784 175.705 14.1489 175.679 14.1381C175.635 14.1194 175.507 14.1214 175.478 14.1086C175.454 14.0978 175.576 14.0192 175.524 13.9946C175.466 13.9661 175.201 14.1244 175.201 14.1244C175.195 14.1214 175.222 14.0792 175.237 14.03C175.226 13.9701 175.331 13.9651 175.109 13.8551C174.789 13.6978 174.407 13.6752 174.092 13.5189C173.773 13.3597 173.49 13.1316 173.176 12.9744C172.857 12.8142 172.435 12.8751 172.121 12.7169C171.798 12.5665 171.477 12.4171 171.159 12.2687C170.841 12.1065 170.613 11.7674 170.3 11.6072C169.983 11.444 169.63 11.3624 169.318 11.2003C169.002 11.0361 168.72 10.8091 168.409 10.6459C168.093 10.4798 167.861 10.1505 167.552 9.98737C167.236 9.82028 166.946 9.61092 166.637 9.44579C166.322 9.27674 165.835 9.46054 165.526 9.29345C165.211 9.12341 164.983 8.78529 164.677 8.61722C164.361 8.44521 164.098 8.18278 163.791 8.01372C163.477 7.83975 163.056 7.88496 162.752 7.71492C162.437 7.538 162.282 7.06326 161.98 6.89126C161.666 6.71237 161.244 6.76053 160.942 6.58656C160.629 6.4057 160.237 6.38998 159.939 6.21404C159.626 6.03024 159.528 5.45426 159.231 5.27734C158.911 5.09846 158.608 4.92842 158.305 4.75936C157.993 4.56769 157.619 4.51658 157.329 4.33475C157.018 4.13817 156.604 4.15783 156.318 3.97206C156.008 3.76762 155.711 3.57104 155.426 3.38331C155.113 3.171 154.96 2.71691 154.69 2.52328C154.372 2.29525 154.149 1.97875 153.895 1.77726C153.568 1.51679 153.072 1.63179 152.856 1.42047C152.395 0.970305 152.17 0.386466 152.265 0.186938Z" fill="#ADADAD"/>
</svg>
