<svg width="55" height="45" viewBox="0 0 55 45" fill="none" xmlns="http://www.w3.org/2000/svg">
<path d="M22.5501 40.8917C21.9957 41.9203 21.1498 42.7616 20.119 43.3094C19.0882 43.8573 17.9185 44.0872 16.7575 43.9703C15.5964 43.8534 14.4959 43.3948 13.5945 42.6524C12.6932 41.9099 12.0314 40.9168 11.6924 39.7982C11.3534 38.6796 11.3525 37.4855 11.6898 36.3664C12.027 35.2473 12.6874 34.2532 13.5876 33.5094C14.4878 32.7656 15.5877 32.3054 16.7486 32.1867C17.9094 32.068 19.0794 32.2962 20.111 32.8425C21.4994 33.5863 22.5362 34.852 22.9936 36.3613C23.4509 37.8706 23.2914 39.5001 22.5501 40.8917Z" stroke="#FF5A12" stroke-linecap="round" stroke-linejoin="round"/>
<path d="M7.22656 25.282C9.71221 23.3191 12.7145 22.1237 15.867 21.8417C19.0195 21.5597 22.1857 22.2034 24.9792 23.6941C27.7726 25.1848 30.0724 27.4581 31.5977 30.2363C33.123 33.0146 33.8079 36.1777 33.5687 39.3394" stroke="#FF5A12" stroke-linecap="round" stroke-linejoin="round"/>
<path d="M4.09863 14.9328C8.00825 12.6886 12.4224 11.4749 16.9278 11.4054C21.4332 11.336 25.8825 12.413 29.8592 14.5356C33.8359 16.6583 37.2099 19.7572 39.6654 23.5422C42.1209 27.3271 43.5775 31.6744 43.8989 36.1771" stroke="#FF5A12" stroke-linecap="round" stroke-linejoin="round"/>
<path d="M1 4.81379C6.26277 2.21681 12.0667 0.911177 17.9325 1.00469C23.7983 1.09821 29.5579 2.58815 34.7355 5.35157C39.9131 8.115 44.3603 12.0726 47.71 16.8976C51.0596 21.7226 53.2157 27.2767 54 33.1011" stroke="#FF5A12" stroke-linecap="round" stroke-linejoin="round"/>
</svg>
