<svg width="5" height="93" viewBox="0 0 5 93" fill="none" xmlns="http://www.w3.org/2000/svg">
<path d="M2.29889 0C3.12682 0 3.7989 0.671906 3.7989 1.5C3.7989 2.32793 3.12682 3 2.29889 3C1.47079 3 0.798897 2.32793 0.798897 1.5C0.798897 0.672066 1.47079 0 2.29889 0Z" fill="#ADADAD"/>
<path d="M2.29889 18C3.12682 18 3.7989 18.6719 3.7989 19.5C3.7989 20.3279 3.12682 21 2.29889 21C1.47079 21 0.798897 20.3281 0.798897 19.5C0.798897 18.6721 1.47079 18 2.29889 18Z" fill="#ADADAD"/>
<path d="M2.29889 36C3.12682 36 3.7989 36.6719 3.7989 37.5C3.7989 38.3279 3.12682 39 2.29889 39C1.47079 39 0.798897 38.3279 0.798897 37.5C0.798897 36.6719 1.47079 36 2.29889 36Z" fill="#ADADAD"/>
<path d="M2.29889 54C3.12682 54 3.7989 54.6719 3.7989 55.5C3.7989 56.3279 3.12682 57 2.29889 57C1.47079 57 0.798897 56.3279 0.798897 55.5C0.798897 54.6719 1.47079 54 2.29889 54Z" fill="#ADADAD"/>
<path d="M2.29889 72C3.12682 72 3.7989 72.6719 3.7989 73.5C3.7989 74.3279 3.12682 75 2.29889 75C1.47079 75 0.798897 74.3279 0.798897 73.5C0.798897 72.6719 1.47079 72 2.29889 72Z" fill="#ADADAD"/>
<path d="M2.29889 90C3.12682 90 3.7989 90.6719 3.7989 91.5C3.7989 92.3279 3.12682 93 2.29889 93C1.47079 93 0.798897 92.3279 0.798897 91.5C0.798897 90.6719 1.47079 90 2.29889 90Z" fill="#ADADAD"/>
</svg>
