<svg width="33" height="21" viewBox="0 0 33 21" fill="none" xmlns="http://www.w3.org/2000/svg">
<path d="M9.89378 18.9998L3.11665 8.05029C3.08932 8.00599 3.1402 7.95471 3.18323 7.98325L13.8218 15.0302C13.8665 15.0597 13.9263 15.0341 13.9368 14.9808L16.4547 2.22915C16.465 2.17725 16.5375 2.17673 16.5486 2.22847L19.2618 15.022C19.2689 15.0555 19.307 15.0714 19.3349 15.0524L29.8114 7.98913C29.8544 7.96001 29.9058 8.01176 29.878 8.0562L23.0107 18.9998" stroke="#FF5A12" stroke-width="4.29778"/>
<path d="M9.89377 19L3 7.86207L13.9149 15.0919L16.5001 2L19.2767 15.0919L30 7.86207L23.0107 19" stroke="#F4F4F4" stroke-width="0.429778"/>
</svg>
