<svg width="167" height="108" viewBox="0 0 167 108" fill="none" xmlns="http://www.w3.org/2000/svg">
<path d="M48.0197 101.574L11.6261 43.236C11.4793 43 11.7525 42.7267 11.9836 42.8788L69.1135 80.4238C69.3533 80.5812 69.6744 80.4447 69.7311 80.161L83.2521 12.2217C83.3073 11.9452 83.6968 11.9424 83.7564 12.2181L98.3266 80.3803C98.3643 80.559 98.5692 80.6435 98.7189 80.5422L154.978 42.9101C155.209 42.755 155.486 43.0307 155.336 43.2675L118.458 101.574" stroke="#F4F4F4" stroke-width="22.279"/>
<path d="M48.0199 101.574L11 42.2323L69.6136 80.752L83.4965 11L98.4067 80.752L155.991 42.2323L118.459 101.574" stroke="#FF5A12" stroke-width="2.2279"/>
</svg>
