<svg width="139" height="50" viewBox="0 0 139 50" fill="none" xmlns="http://www.w3.org/2000/svg">
<g clip-path="url(#clip0_15_95)">
<mask id="mask0_15_95" style="mask-type:luminance" maskUnits="userSpaceOnUse" x="0" y="25" width="128" height="25">
<path d="M127.305 25.8865H0V50H127.305V25.8865Z" fill="white"/>
</mask>
<g mask="url(#mask0_15_95)">
<path d="M4.83652 46.1653H12.7822V50H0V25.8865H4.83652V46.1653Z" fill="#202526"/>
<path d="M32.6404 42.7195H18.9994C19.2317 43.8369 19.8491 44.8383 20.7446 45.5497C21.7081 46.2904 22.9006 46.6734 24.1169 46.633C25.1269 46.6422 26.1164 46.3497 26.958 45.7933C27.7546 45.2681 28.3813 44.5241 28.7622 43.6518L31.949 45.4826C31.2087 46.8979 30.0788 48.0738 28.6916 48.8727C27.3045 49.6713 25.7177 50.0599 24.1169 49.9926C22.8815 50.0064 21.6555 49.7784 20.5085 49.3206C19.4682 48.9067 18.5235 48.2858 17.7321 47.4958C16.9407 46.706 16.3191 45.7638 15.9054 44.7266C15.4771 43.6582 15.2596 42.5177 15.2646 41.3674C15.2577 40.1919 15.487 39.0266 15.9391 37.9408C16.3655 36.9046 16.9929 35.9631 17.7854 35.1692C18.579 34.3793 19.5178 33.7492 20.5507 33.3131C21.635 32.8517 22.8029 32.6172 23.982 32.6244C25.1626 32.615 26.3338 32.8347 27.4302 33.2711C28.4579 33.6761 29.3906 34.2879 30.1702 35.0684C30.9391 35.8532 31.5463 36.7805 31.9575 37.7979C32.3979 38.8865 32.6185 40.0507 32.6066 41.2245L32.6404 42.7195Z" fill="#202526"/>
<path d="M38.022 32.9401V30.3726L41.9614 27.6596V32.9573H45.3723V36.4833H41.9614V42.8511C41.9507 43.4493 41.9876 44.0475 42.0723 44.6397C42.1241 45.0319 42.2936 45.3989 42.5582 45.6926C42.8472 45.9567 43.2106 46.1241 43.5986 46.1716C44.1972 46.2571 44.8018 46.2943 45.4064 46.283V49.9975H44.8606C43.7532 50.0191 42.6472 49.9014 41.5692 49.6465C40.7702 49.4596 40.0404 49.0504 39.4628 48.4656C38.9085 47.8486 38.5259 47.0957 38.3543 46.283C38.1078 45.1592 37.9961 44.0099 38.022 42.8596V36.4663H35.1226V32.9401H38.022Z" fill="#202526"/>
<path d="M50.6933 48.9333C49.4816 48.2355 48.505 47.189 47.8887 45.9287L51.4259 44.255C51.7865 44.9922 52.3461 45.6128 53.0404 46.0461C53.7567 46.4748 54.5787 46.6922 55.4124 46.6737C56.167 46.7305 56.9177 46.5202 57.5348 46.0794C57.7528 45.9124 57.9298 45.6972 58.0525 45.4507C58.1752 45.2039 58.2401 44.9323 58.2422 44.6567C58.2472 44.5159 58.2206 44.3759 58.1645 44.2468C58.1082 44.1181 58.0238 44.0035 57.9177 43.9117C57.6674 43.705 57.3865 43.5383 57.0855 43.4181C56.6862 43.262 56.2738 43.1415 55.8535 43.0581L54.3887 42.7486C53.6731 42.5979 52.9656 42.4138 52.2748 42.2046C51.6209 42.0191 50.9982 41.7372 50.427 41.3674C49.8837 40.9986 49.4287 40.5124 49.0954 39.9447C48.7351 39.2784 48.5596 38.5266 48.5876 37.7688C48.5855 37.0986 48.7457 36.4379 49.0539 35.8436C49.3677 35.1975 49.8163 34.6267 50.3688 34.1699C50.9762 33.6697 51.6702 33.2866 52.4163 33.04C53.2812 32.756 54.1865 32.6175 55.0961 32.6299C56.5394 32.5763 57.9723 32.8963 59.2575 33.559C60.3348 34.1478 61.2369 35.0144 61.8709 36.0699L58.6167 37.7436C58.2819 37.1557 57.7922 36.672 57.2018 36.3457C56.5621 35.9947 55.8415 35.8188 55.1128 35.8355C54.4004 35.7773 53.6894 35.9663 53.0986 36.3709C52.9018 36.5163 52.7411 36.705 52.6284 36.9227C52.516 37.1401 52.4546 37.3812 52.4496 37.6266C52.456 37.9035 52.5546 38.1702 52.7298 38.384C52.9046 38.5979 53.1461 38.7468 53.4149 38.8064C54.3411 39.1188 55.2862 39.3702 56.2447 39.5596C56.9362 39.6982 57.6195 39.8741 58.2922 40.0869C58.9539 40.2794 59.5865 40.561 60.1731 40.9241C60.7305 41.2894 61.2 41.7755 61.5465 42.3468C61.9145 43.0106 62.0957 43.7631 62.0706 44.5227C62.0621 45.1574 61.9262 45.7837 61.6713 46.3642C61.3784 47.0475 60.9411 47.6589 60.3894 48.155C59.7823 48.7344 59.0663 49.1869 58.2837 49.4858C57.3064 49.8464 56.2702 50.0199 55.2294 49.9964C53.6514 50.0411 52.089 49.6752 50.6933 48.9333Z" fill="#202526"/>
<path d="M126.569 25.8865C126.961 25.8865 127.278 26.2041 127.278 26.5958V29.0811C127.278 29.4728 126.961 29.7903 126.569 29.7903H120.853V50H116.016V29.7903H112.804H110.3C109.908 29.7903 109.591 29.4728 109.591 29.0811V26.5958C109.591 26.2041 109.908 25.8865 110.3 25.8865H126.569Z" fill="#202526"/>
<path d="M69.2294 49.0447C67.7968 48.4486 66.4989 47.5745 65.4131 46.4738C64.3496 45.3858 63.5131 44.1011 62.9514 42.6926C62.3542 41.188 62.0564 39.5833 62.0737 37.9667C62.0624 36.3064 62.3869 34.661 63.0276 33.127C63.6298 31.7102 64.5085 30.4253 65.6135 29.3461C66.7057 28.2667 68.0025 27.4121 69.4298 26.8318C70.9429 26.2132 72.5631 25.8922 74.2003 25.8865C75.2794 25.8855 76.3542 26.0253 77.3964 26.3024C78.3961 26.5776 79.3574 26.9745 80.2589 27.4839C81.15 27.9791 81.9684 28.593 82.6915 29.3083C83.428 30.0251 84.0691 30.8319 84.6 31.7092L80.7833 34.1478C80.1496 32.9935 79.2507 32.0029 78.1596 31.2555C77.0003 30.52 75.6429 30.1508 74.267 30.1968C73.1972 30.186 72.1362 30.3885 71.1471 30.7922C70.2245 31.1685 69.3872 31.7247 68.6854 32.4276C67.9865 33.1326 67.4351 33.9679 67.0635 34.8851C66.6695 35.8553 66.4716 36.8926 66.4815 37.9383C66.4727 38.9685 66.6702 39.9901 67.0635 40.944C67.4358 41.8511 67.9798 42.6787 68.6667 43.3826C69.3589 44.0858 70.1862 44.6451 71.0993 45.0273C72.0691 45.4294 73.111 45.6319 74.162 45.6231C75.6507 45.6695 77.1142 45.2348 78.3316 44.3848C79.4663 43.5653 80.3752 42.4763 80.9741 41.2181L85.0007 43.3071C84.4826 44.2876 83.8415 45.199 83.0925 46.0199C82.3603 46.8351 81.5191 47.5475 80.5925 48.1372C79.6518 48.7426 78.6262 49.2075 77.5489 49.5174C76.4596 49.8404 75.328 50.0029 74.1908 49.9993C72.4886 50.0174 70.8007 49.6926 69.2294 49.0447Z" fill="#202526"/>
<path d="M91.3262 32.9933V35.5532C91.7057 34.7302 92.3344 34.0425 93.1262 33.5844C93.9181 33.1261 94.8347 32.9196 95.7507 32.9933C96.3358 32.9822 96.9199 33.0512 97.4858 33.1982C97.9532 33.3188 98.4046 33.4935 98.8305 33.7187L97.3294 37.4305C97.0198 37.2344 96.6879 37.0737 96.3404 36.9528C95.8858 36.8135 95.411 36.75 94.9351 36.7649C94.456 36.7369 93.9762 36.8089 93.5276 36.9766C93.0791 37.1443 92.6716 37.4039 92.3323 37.7379C91.6606 38.6571 91.3525 39.7855 91.4649 40.912V50H87.483V33.0275L91.3262 32.9933Z" fill="#202526"/>
<path d="M103.802 40.895C102.396 40.1475 101.694 38.9741 101.694 37.3741C101.694 36.567 101.903 35.8344 102.322 35.1764C102.74 34.5037 103.376 33.9729 104.228 33.5842C105.08 33.1805 106.127 32.9787 107.368 32.9787C108.609 32.9787 109.648 33.1805 110.485 33.5842C111.337 33.9729 111.972 34.5037 112.391 35.1764C112.81 35.8344 113.019 36.567 113.019 37.3741C113.019 38.1815 112.824 38.8844 112.436 39.4822C112.062 40.0801 111.554 40.551 110.911 40.895C111.718 41.2837 112.339 41.822 112.772 42.5096C113.206 43.1826 113.423 43.9748 113.423 44.8869C113.423 45.9482 113.154 46.8677 112.615 47.6454C112.077 48.4078 111.344 48.9908 110.417 49.3947C109.506 49.7982 108.489 50 107.368 50C106.246 50 105.222 49.7982 104.295 49.3947C103.383 48.9908 102.658 48.4078 102.12 47.6454C101.582 46.8677 101.313 45.9482 101.313 44.8869C101.313 43.9599 101.529 43.1603 101.963 42.4872C102.396 41.7996 103.01 41.2688 103.802 40.895ZM107.818 37.5886C107.818 36.9755 107.883 37.6535 107.818 37.5886C107.474 37.2447 107.829 37.6 107.818 37.5886C107.235 37.5886 107.789 37.5556 108.05 37.4113C107.706 37.7553 107.818 37.5886 107.818 37.5886C107.818 37.5886 107.691 37.0674 108.05 37.4113C108.409 37.74 107.25 37.5886 107.818 37.5886C107.839 37.6085 107.696 37.5886 107.818 37.5886ZM107.368 42.5546C106.665 42.5546 106.097 42.7489 105.663 43.1376C105.23 43.5113 105.013 44.0347 105.013 44.7074C105.013 45.3354 105.222 45.851 105.641 46.2549C106.074 46.6585 106.65 46.8603 107.368 46.8603C108.085 46.8603 108.646 46.6585 109.05 46.2549C109.468 45.851 109.678 45.3354 109.678 44.7074C109.678 44.0496 109.461 43.5262 109.027 43.1376C108.609 42.7489 108.055 42.5546 107.368 42.5546Z" fill="#202526"/>
</g>
<mask id="mask1_15_95" style="mask-type:luminance" maskUnits="userSpaceOnUse" x="99" y="0" width="39" height="25">
<path d="M137.99 0H99.6454V24.1135H137.99V0Z" fill="white"/>
</mask>
<g mask="url(#mask1_15_95)">
<path d="M110.161 23.224L101.28 9.15677C101.245 9.09986 101.311 9.03397 101.368 9.07064L115.308 18.124C115.367 18.162 115.445 18.1291 115.459 18.0607L118.758 1.67815C118.772 1.61147 118.867 1.6108 118.881 1.67727L122.437 18.1135C122.446 18.1566 122.496 18.177 122.532 18.1526L136.26 9.07819C136.317 9.04078 136.384 9.10727 136.348 9.16436L127.349 23.224" stroke="#FF5A12" stroke-width="3.22334"/>
<path d="M110.161 23.224L101.128 8.91475L115.43 18.2032L118.818 1.38354L122.456 18.2032L136.507 8.91475L127.349 23.224" stroke="#F4F4F4" stroke-width="0.322334"/>
</g>
</g>
<defs>
<clipPath id="clip0_15_95">
<rect width="138.298" height="50" fill="white"/>
</clipPath>
</defs>
</svg>
