<svg width="364" height="242" viewBox="0 0 364 242" fill="none" xmlns="http://www.w3.org/2000/svg">
<path d="M347.535 113.08C356.259 134.141 360.887 156.664 361.18 179.444L2.3213 179.444C2.6141 156.664 7.24224 134.141 15.9658 113.08C24.9837 91.3091 38.2015 71.5273 54.8644 54.8644C71.5273 38.2015 91.309 24.9837 113.08 15.9658C134.851 6.94793 158.185 2.30648 181.75 2.30648C205.315 2.30648 228.65 6.94793 250.421 15.9658C272.192 24.9837 291.974 38.2015 308.636 54.8644C325.299 71.5273 338.517 91.3091 347.535 113.08Z" fill="#FFAD89" stroke="white" stroke-width="4.61296"/>
<path d="M324.398 72.885C347.799 103.547 360.685 140.916 361.18 179.444H182.381L28.4823 88.4284C48.5205 55.5179 78.634 29.9121 114.384 15.4317C150.848 0.662483 191.154 -1.71452 229.101 8.66648C267.047 19.0475 300.531 41.6112 324.398 72.885Z" fill="#FF9C71" stroke="white" stroke-width="4.61296"/>
<path d="M337.2 92.1098C352.535 118.703 360.785 148.774 361.18 179.444H183.085L94.3614 25.0236C121.151 10.0862 151.334 2.25848 182.032 2.3067C213.499 2.35613 244.4 10.6794 271.635 26.4415C298.87 42.2035 321.481 64.8503 337.2 92.1098Z" fill="#FF8C59" stroke="white" stroke-width="4.61296"/>
<path d="M309.034 55.264C341.901 88.3375 360.582 132.881 361.18 179.444H184.071L185.184 2.33963C231.742 3.22999 276.168 22.1904 309.034 55.264Z" fill="#FF7B41" stroke="white" stroke-width="4.61296"/>
<path d="M337.341 92.3541C352.587 118.889 360.787 148.87 361.18 179.444H185.765L274.108 27.899C300.324 43.6364 322.095 65.8197 337.341 92.3541Z" fill="#FF6B2A" stroke="white" stroke-width="4.61296"/>
<path d="M190.395 179.444L338.477 94.3614C352.994 120.396 360.797 149.638 361.18 179.444H190.395Z" fill="#FF5A12" stroke="white" stroke-width="4.61296"/>
<path d="M295.932 69.7569C325.58 99.4047 342.47 139.425 343.069 181.289L21.118 181.289C21.7171 139.425 38.6072 99.4047 68.255 69.7568C98.4469 39.565 139.396 22.6033 182.094 22.6034C224.791 22.6034 265.74 39.565 295.932 69.7569Z" fill="url(#paint0_linear_327_808)" stroke="white" stroke-width="4.61296"/>
<path d="M259.631 64.6155L233.585 120.31L175.606 199.743L165.819 193.142L217.749 109.628L259.631 64.6155Z" fill="#323232"/>
<rect x="46.795" y="210.572" width="271" height="30.6999" rx="5" fill="white"/>
<path d="M57.6757 222.322V220.258H61.5317V231.922H59.2277V222.322H57.6757ZM64.4486 229.394C65.4726 228.541 66.2886 227.832 66.8966 227.266C67.5046 226.69 68.0113 226.093 68.4166 225.474C68.8219 224.856 69.0246 224.248 69.0246 223.65C69.0246 223.106 68.8966 222.68 68.6406 222.37C68.3846 222.061 67.9899 221.906 67.4566 221.906C66.9233 221.906 66.5126 222.088 66.2246 222.45C65.9366 222.802 65.7873 223.288 65.7766 223.906H63.6006C63.6433 222.626 64.0219 221.656 64.7366 220.994C65.4619 220.333 66.3793 220.002 67.4886 220.002C68.7046 220.002 69.6379 220.328 70.2886 220.978C70.9393 221.618 71.2646 222.466 71.2646 223.522C71.2646 224.354 71.0406 225.149 70.5926 225.906C70.1446 226.664 69.6326 227.325 69.0566 227.89C68.4806 228.445 67.7286 229.117 66.8006 229.906H71.5206V231.762H63.6166V230.098L64.4486 229.394ZM81.5561 227.202H78.5321V230.306H76.4201V227.202H73.3961V225.25H76.4201V222.146H78.5321V225.25H81.5561V227.202ZM102.71 220.754L99.5899 231.922H96.9499L94.8539 223.97L92.6619 231.922L90.0379 231.938L87.0299 220.754H89.4299L91.3979 229.426L93.6699 220.754H96.1659L98.3099 229.378L100.294 220.754H102.71ZM112.412 227.298C112.412 227.618 112.391 227.906 112.348 228.162H105.868C105.922 228.802 106.146 229.304 106.54 229.666C106.935 230.029 107.42 230.21 107.996 230.21C108.828 230.21 109.42 229.853 109.772 229.138H112.188C111.932 229.992 111.442 230.696 110.716 231.25C109.991 231.794 109.1 232.066 108.044 232.066C107.191 232.066 106.423 231.88 105.74 231.506C105.068 231.122 104.54 230.584 104.156 229.89C103.783 229.197 103.596 228.397 103.596 227.49C103.596 226.573 103.783 225.768 104.156 225.074C104.53 224.381 105.052 223.848 105.724 223.474C106.396 223.101 107.17 222.914 108.044 222.914C108.887 222.914 109.639 223.096 110.3 223.458C110.972 223.821 111.49 224.338 111.852 225.01C112.226 225.672 112.412 226.434 112.412 227.298ZM110.092 226.658C110.082 226.082 109.874 225.624 109.468 225.282C109.063 224.93 108.567 224.754 107.98 224.754C107.426 224.754 106.956 224.925 106.572 225.266C106.199 225.597 105.97 226.061 105.884 226.658H110.092ZM116.287 224.354C116.575 223.928 116.97 223.581 117.471 223.314C117.983 223.048 118.565 222.914 119.215 222.914C119.973 222.914 120.655 223.101 121.263 223.474C121.882 223.848 122.367 224.381 122.719 225.074C123.082 225.757 123.263 226.552 123.263 227.458C123.263 228.365 123.082 229.17 122.719 229.874C122.367 230.568 121.882 231.106 121.263 231.49C120.655 231.874 119.973 232.066 119.215 232.066C118.554 232.066 117.973 231.938 117.471 231.682C116.981 231.416 116.586 231.074 116.287 230.658V231.922H114.047V220.082H116.287V224.354ZM120.975 227.458C120.975 226.925 120.863 226.466 120.639 226.082C120.426 225.688 120.138 225.389 119.775 225.186C119.423 224.984 119.039 224.882 118.623 224.882C118.218 224.882 117.834 224.989 117.471 225.202C117.119 225.405 116.831 225.704 116.607 226.098C116.394 226.493 116.287 226.957 116.287 227.49C116.287 228.024 116.394 228.488 116.607 228.882C116.831 229.277 117.119 229.581 117.471 229.794C117.834 229.997 118.218 230.098 118.623 230.098C119.039 230.098 119.423 229.992 119.775 229.778C120.138 229.565 120.426 229.261 120.639 228.866C120.863 228.472 120.975 228.002 120.975 227.458ZM128.283 232.066C127.558 232.066 126.907 231.938 126.331 231.682C125.755 231.416 125.297 231.058 124.955 230.61C124.625 230.162 124.443 229.666 124.411 229.122H126.667C126.71 229.464 126.875 229.746 127.163 229.97C127.462 230.194 127.83 230.306 128.267 230.306C128.694 230.306 129.025 230.221 129.259 230.05C129.505 229.88 129.627 229.661 129.627 229.394C129.627 229.106 129.478 228.893 129.179 228.754C128.891 228.605 128.427 228.445 127.787 228.274C127.126 228.114 126.582 227.949 126.155 227.778C125.739 227.608 125.377 227.346 125.067 226.994C124.769 226.642 124.619 226.168 124.619 225.57C124.619 225.08 124.758 224.632 125.035 224.226C125.323 223.821 125.729 223.501 126.251 223.266C126.785 223.032 127.409 222.914 128.123 222.914C129.179 222.914 130.022 223.181 130.651 223.714C131.281 224.237 131.627 224.946 131.691 225.842H129.547C129.515 225.49 129.366 225.213 129.099 225.01C128.843 224.797 128.497 224.69 128.059 224.69C127.654 224.69 127.339 224.765 127.115 224.914C126.902 225.064 126.795 225.272 126.795 225.538C126.795 225.837 126.945 226.066 127.243 226.226C127.542 226.376 128.006 226.53 128.635 226.69C129.275 226.85 129.803 227.016 130.219 227.186C130.635 227.357 130.993 227.624 131.291 227.986C131.601 228.338 131.761 228.808 131.771 229.394C131.771 229.906 131.627 230.365 131.339 230.77C131.062 231.176 130.657 231.496 130.123 231.73C129.601 231.954 128.987 232.066 128.283 232.066ZM134.746 222.002C134.351 222.002 134.021 221.88 133.754 221.634C133.498 221.378 133.37 221.064 133.37 220.69C133.37 220.317 133.498 220.008 133.754 219.762C134.021 219.506 134.351 219.378 134.746 219.378C135.141 219.378 135.466 219.506 135.722 219.762C135.989 220.008 136.122 220.317 136.122 220.69C136.122 221.064 135.989 221.378 135.722 221.634C135.466 221.88 135.141 222.002 134.746 222.002ZM135.85 223.058V231.922H133.61V223.058H135.85ZM140.671 224.898V229.186C140.671 229.485 140.74 229.704 140.879 229.842C141.028 229.97 141.274 230.034 141.615 230.034H142.655V231.922H141.247C139.359 231.922 138.415 231.005 138.415 229.17V224.898H137.359V223.058H138.415V220.866H140.671V223.058H142.655V224.898H140.671ZM152.506 227.298C152.506 227.618 152.485 227.906 152.442 228.162H145.962C146.016 228.802 146.24 229.304 146.634 229.666C147.029 230.029 147.514 230.21 148.09 230.21C148.922 230.21 149.514 229.853 149.866 229.138H152.282C152.026 229.992 151.536 230.696 150.81 231.25C150.085 231.794 149.194 232.066 148.138 232.066C147.285 232.066 146.517 231.88 145.834 231.506C145.162 231.122 144.634 230.584 144.25 229.89C143.877 229.197 143.69 228.397 143.69 227.49C143.69 226.573 143.877 225.768 144.25 225.074C144.624 224.381 145.146 223.848 145.818 223.474C146.49 223.101 147.264 222.914 148.138 222.914C148.981 222.914 149.733 223.096 150.394 223.458C151.066 223.821 151.584 224.338 151.946 225.01C152.32 225.672 152.506 226.434 152.506 227.298ZM150.186 226.658C150.176 226.082 149.968 225.624 149.562 225.282C149.157 224.93 148.661 224.754 148.074 224.754C147.52 224.754 147.05 224.925 146.666 225.266C146.293 225.597 146.064 226.061 145.978 226.658H150.186ZM157.378 227.49C157.378 226.573 157.564 225.773 157.938 225.09C158.311 224.397 158.828 223.864 159.49 223.49C160.151 223.106 160.908 222.914 161.762 222.914C162.86 222.914 163.767 223.192 164.482 223.746C165.207 224.29 165.692 225.058 165.938 226.05H163.522C163.394 225.666 163.175 225.368 162.866 225.154C162.567 224.93 162.194 224.818 161.746 224.818C161.106 224.818 160.599 225.053 160.226 225.522C159.852 225.981 159.666 226.637 159.666 227.49C159.666 228.333 159.852 228.989 160.226 229.458C160.599 229.917 161.106 230.146 161.746 230.146C162.652 230.146 163.244 229.741 163.522 228.93H165.938C165.692 229.89 165.207 230.653 164.482 231.218C163.756 231.784 162.85 232.066 161.762 232.066C160.908 232.066 160.151 231.88 159.49 231.506C158.828 231.122 158.311 230.589 157.938 229.906C157.564 229.213 157.378 228.408 157.378 227.49ZM171.515 232.066C170.661 232.066 169.893 231.88 169.211 231.506C168.528 231.122 167.989 230.584 167.595 229.89C167.211 229.197 167.019 228.397 167.019 227.49C167.019 226.584 167.216 225.784 167.611 225.09C168.016 224.397 168.565 223.864 169.259 223.49C169.952 223.106 170.725 222.914 171.579 222.914C172.432 222.914 173.205 223.106 173.899 223.49C174.592 223.864 175.136 224.397 175.531 225.09C175.936 225.784 176.139 226.584 176.139 227.49C176.139 228.397 175.931 229.197 175.515 229.89C175.109 230.584 174.555 231.122 173.851 231.506C173.157 231.88 172.379 232.066 171.515 232.066ZM171.515 230.114C171.92 230.114 172.299 230.018 172.651 229.826C173.013 229.624 173.301 229.325 173.515 228.93C173.728 228.536 173.835 228.056 173.835 227.49C173.835 226.648 173.611 226.002 173.163 225.554C172.725 225.096 172.187 224.866 171.547 224.866C170.907 224.866 170.368 225.096 169.931 225.554C169.504 226.002 169.291 226.648 169.291 227.49C169.291 228.333 169.499 228.984 169.915 229.442C170.341 229.89 170.875 230.114 171.515 230.114ZM188.79 222.93C189.878 222.93 190.753 223.266 191.414 223.938C192.086 224.6 192.422 225.528 192.422 226.722V231.922H190.182V227.026C190.182 226.333 190.006 225.805 189.654 225.442C189.302 225.069 188.822 224.882 188.214 224.882C187.606 224.882 187.121 225.069 186.758 225.442C186.406 225.805 186.23 226.333 186.23 227.026V231.922H183.99V227.026C183.99 226.333 183.814 225.805 183.462 225.442C183.11 225.069 182.63 224.882 182.022 224.882C181.403 224.882 180.913 225.069 180.55 225.442C180.198 225.805 180.022 226.333 180.022 227.026V231.922H177.782V223.058H180.022V224.13C180.31 223.757 180.678 223.464 181.126 223.25C181.585 223.037 182.086 222.93 182.63 222.93C183.323 222.93 183.942 223.08 184.486 223.378C185.03 223.666 185.451 224.082 185.75 224.626C186.038 224.114 186.454 223.704 186.998 223.394C187.553 223.085 188.15 222.93 188.79 222.93ZM196.787 224.338C197.075 223.933 197.47 223.597 197.971 223.33C198.483 223.053 199.065 222.914 199.715 222.914C200.473 222.914 201.155 223.101 201.763 223.474C202.382 223.848 202.867 224.381 203.219 225.074C203.582 225.757 203.763 226.552 203.763 227.458C203.763 228.365 203.582 229.17 203.219 229.874C202.867 230.568 202.382 231.106 201.763 231.49C201.155 231.874 200.473 232.066 199.715 232.066C199.065 232.066 198.489 231.933 197.987 231.666C197.497 231.4 197.097 231.064 196.787 230.658V236.146H194.547V223.058H196.787V224.338ZM201.475 227.458C201.475 226.925 201.363 226.466 201.139 226.082C200.926 225.688 200.638 225.389 200.275 225.186C199.923 224.984 199.539 224.882 199.123 224.882C198.718 224.882 198.334 224.989 197.971 225.202C197.619 225.405 197.331 225.704 197.107 226.098C196.894 226.493 196.787 226.957 196.787 227.49C196.787 228.024 196.894 228.488 197.107 228.882C197.331 229.277 197.619 229.581 197.971 229.794C198.334 229.997 198.718 230.098 199.123 230.098C199.539 230.098 199.923 229.992 200.275 229.778C200.638 229.565 200.926 229.261 201.139 228.866C201.363 228.472 201.475 228.002 201.475 227.458ZM207.631 220.082V231.922H205.391V220.082H207.631ZM218.084 227.298C218.084 227.618 218.063 227.906 218.02 228.162H211.54C211.594 228.802 211.818 229.304 212.212 229.666C212.607 230.029 213.092 230.21 213.668 230.21C214.5 230.21 215.092 229.853 215.444 229.138H217.86C217.604 229.992 217.114 230.696 216.388 231.25C215.663 231.794 214.772 232.066 213.716 232.066C212.863 232.066 212.095 231.88 211.412 231.506C210.74 231.122 210.212 230.584 209.828 229.89C209.455 229.197 209.268 228.397 209.268 227.49C209.268 226.573 209.455 225.768 209.828 225.074C210.202 224.381 210.724 223.848 211.396 223.474C212.068 223.101 212.842 222.914 213.716 222.914C214.559 222.914 215.311 223.096 215.972 223.458C216.644 223.821 217.162 224.338 217.524 225.01C217.898 225.672 218.084 226.434 218.084 227.298ZM215.764 226.658C215.754 226.082 215.546 225.624 215.14 225.282C214.735 224.93 214.239 224.754 213.652 224.754C213.098 224.754 212.628 224.925 212.244 225.266C211.871 225.597 211.642 226.061 211.556 226.658H215.764ZM222.327 224.898V229.186C222.327 229.485 222.397 229.704 222.535 229.842C222.685 229.97 222.93 230.034 223.271 230.034H224.311V231.922H222.903C221.015 231.922 220.071 231.005 220.071 229.17V224.898H219.015V223.058H220.071V220.866H222.327V223.058H224.311V224.898H222.327ZM234.162 227.298C234.162 227.618 234.141 227.906 234.098 228.162H227.618C227.672 228.802 227.896 229.304 228.29 229.666C228.685 230.029 229.17 230.21 229.746 230.21C230.578 230.21 231.17 229.853 231.522 229.138H233.938C233.682 229.992 233.192 230.696 232.466 231.25C231.741 231.794 230.85 232.066 229.794 232.066C228.941 232.066 228.173 231.88 227.49 231.506C226.818 231.122 226.29 230.584 225.906 229.89C225.533 229.197 225.346 228.397 225.346 227.49C225.346 226.573 225.533 225.768 225.906 225.074C226.28 224.381 226.802 223.848 227.474 223.474C228.146 223.101 228.92 222.914 229.794 222.914C230.637 222.914 231.389 223.096 232.05 223.458C232.722 223.821 233.24 224.338 233.602 225.01C233.976 225.672 234.162 226.434 234.162 227.298ZM231.842 226.658C231.832 226.082 231.624 225.624 231.218 225.282C230.813 224.93 230.317 224.754 229.73 224.754C229.176 224.754 228.706 224.925 228.322 225.266C227.949 225.597 227.72 226.061 227.634 226.658H231.842ZM235.221 227.458C235.221 226.562 235.397 225.768 235.749 225.074C236.112 224.381 236.603 223.848 237.221 223.474C237.84 223.101 238.528 222.914 239.285 222.914C239.861 222.914 240.411 223.042 240.933 223.298C241.456 223.544 241.872 223.874 242.181 224.29V220.082H244.453V231.922H242.181V230.61C241.904 231.048 241.515 231.4 241.013 231.666C240.512 231.933 239.931 232.066 239.269 232.066C238.523 232.066 237.84 231.874 237.221 231.49C236.603 231.106 236.112 230.568 235.749 229.874C235.397 229.17 235.221 228.365 235.221 227.458ZM242.197 227.49C242.197 226.946 242.091 226.482 241.877 226.098C241.664 225.704 241.376 225.405 241.013 225.202C240.651 224.989 240.261 224.882 239.845 224.882C239.429 224.882 239.045 224.984 238.693 225.186C238.341 225.389 238.053 225.688 237.829 226.082C237.616 226.466 237.509 226.925 237.509 227.458C237.509 227.992 237.616 228.461 237.829 228.866C238.053 229.261 238.341 229.565 238.693 229.778C239.056 229.992 239.44 230.098 239.845 230.098C240.261 230.098 240.651 229.997 241.013 229.794C241.376 229.581 241.664 229.282 241.877 228.898C242.091 228.504 242.197 228.034 242.197 227.49ZM251.59 222.002C251.195 222.002 250.864 221.88 250.598 221.634C250.342 221.378 250.214 221.064 250.214 220.69C250.214 220.317 250.342 220.008 250.598 219.762C250.864 219.506 251.195 219.378 251.59 219.378C251.984 219.378 252.31 219.506 252.566 219.762C252.832 220.008 252.966 220.317 252.966 220.69C252.966 221.064 252.832 221.378 252.566 221.634C252.31 221.88 251.984 222.002 251.59 222.002ZM252.694 223.058V231.922H250.454V223.058H252.694ZM259.819 222.93C260.875 222.93 261.728 223.266 262.379 223.938C263.03 224.6 263.355 225.528 263.355 226.722V231.922H261.115V227.026C261.115 226.322 260.939 225.784 260.587 225.41C260.235 225.026 259.755 224.834 259.147 224.834C258.528 224.834 258.038 225.026 257.675 225.41C257.323 225.784 257.147 226.322 257.147 227.026V231.922H254.907V223.058H257.147V224.162C257.446 223.778 257.824 223.48 258.283 223.266C258.752 223.042 259.264 222.93 259.819 222.93ZM269.745 229.394C270.769 228.541 271.585 227.832 272.193 227.266C272.801 226.69 273.308 226.093 273.713 225.474C274.119 224.856 274.321 224.248 274.321 223.65C274.321 223.106 274.193 222.68 273.937 222.37C273.681 222.061 273.287 221.906 272.753 221.906C272.22 221.906 271.809 222.088 271.521 222.45C271.233 222.802 271.084 223.288 271.073 223.906H268.897C268.94 222.626 269.319 221.656 270.033 220.994C270.759 220.333 271.676 220.002 272.785 220.002C274.001 220.002 274.935 220.328 275.585 220.978C276.236 221.618 276.561 222.466 276.561 223.522C276.561 224.354 276.337 225.149 275.889 225.906C275.441 226.664 274.929 227.325 274.353 227.89C273.777 228.445 273.025 229.117 272.097 229.906H276.817V231.762H268.913V230.098L269.745 229.394ZM278.229 225.938C278.229 224.093 278.56 222.648 279.221 221.602C279.893 220.557 281.002 220.034 282.549 220.034C284.096 220.034 285.2 220.557 285.861 221.602C286.533 222.648 286.869 224.093 286.869 225.938C286.869 227.794 286.533 229.25 285.861 230.306C285.2 231.362 284.096 231.89 282.549 231.89C281.002 231.89 279.893 231.362 279.221 230.306C278.56 229.25 278.229 227.794 278.229 225.938ZM284.661 225.938C284.661 225.149 284.608 224.488 284.501 223.954C284.405 223.41 284.202 222.968 283.893 222.626C283.594 222.285 283.146 222.114 282.549 222.114C281.952 222.114 281.498 222.285 281.189 222.626C280.89 222.968 280.688 223.41 280.581 223.954C280.485 224.488 280.437 225.149 280.437 225.938C280.437 226.749 280.485 227.432 280.581 227.986C280.677 228.53 280.88 228.973 281.189 229.314C281.498 229.645 281.952 229.81 282.549 229.81C283.146 229.81 283.6 229.645 283.909 229.314C284.218 228.973 284.421 228.53 284.517 227.986C284.613 227.432 284.661 226.749 284.661 225.938ZM289.277 229.394C290.301 228.541 291.117 227.832 291.725 227.266C292.333 226.69 292.839 226.093 293.245 225.474C293.65 224.856 293.853 224.248 293.853 223.65C293.853 223.106 293.725 222.68 293.469 222.37C293.213 222.061 292.818 221.906 292.285 221.906C291.751 221.906 291.341 222.088 291.053 222.45C290.765 222.802 290.615 223.288 290.605 223.906H288.429C288.471 222.626 288.85 221.656 289.565 220.994C290.29 220.333 291.207 220.002 292.317 220.002C293.533 220.002 294.466 220.328 295.117 220.978C295.767 221.618 296.093 222.466 296.093 223.522C296.093 224.354 295.869 225.149 295.421 225.906C294.973 226.664 294.461 227.325 293.885 227.89C293.309 228.445 292.557 229.117 291.629 229.906H296.349V231.762H288.445V230.098L289.277 229.394ZM297.664 229.65V227.89L302.896 220.402H305.504V227.698H306.912V229.65H305.504V231.922H303.264V229.65H297.664ZM303.408 222.802L300.128 227.698H303.408V222.802Z" fill="#ADADAD"/>
<circle cx="181.597" cy="181.904" r="15.2227" fill="#323232" stroke="white" stroke-width="3.0753"/>
<defs>
<linearGradient id="paint0_linear_327_808" x1="182.094" y1="20.2969" x2="182.094" y2="183.595" gradientUnits="userSpaceOnUse">
<stop stop-color="#DDDDDD"/>
<stop offset="0.489583" stop-color="white"/>
</linearGradient>
</defs>
</svg>
