<svg width="364" height="216" viewBox="0 0 364 216" fill="none" xmlns="http://www.w3.org/2000/svg">
<path d="M347.535 113.08C356.259 134.141 360.887 156.664 361.18 179.444L2.3213 179.444C2.6141 156.664 7.24224 134.141 15.9658 113.08C24.9837 91.3091 38.2015 71.5273 54.8644 54.8644C71.5273 38.2015 91.309 24.9837 113.08 15.9658C134.851 6.94793 158.185 2.30648 181.75 2.30648C205.315 2.30648 228.65 6.94793 250.421 15.9658C272.192 24.9837 291.974 38.2015 308.636 54.8644C325.299 71.5273 338.517 91.3091 347.535 113.08Z" fill="#FFAD89" stroke="white" stroke-width="4.61296"/>
<path d="M324.398 72.885C347.799 103.547 360.685 140.916 361.18 179.444H182.381L28.4823 88.4284C48.5205 55.5179 78.634 29.9121 114.384 15.4317C150.848 0.662483 191.154 -1.71452 229.101 8.66648C267.047 19.0475 300.531 41.6112 324.398 72.885Z" fill="#FF9C71" stroke="white" stroke-width="4.61296"/>
<path d="M337.2 92.1098C352.535 118.703 360.785 148.774 361.18 179.444H183.085L94.3614 25.0236C121.151 10.0862 151.334 2.25848 182.032 2.3067C213.499 2.35613 244.4 10.6794 271.635 26.4415C298.87 42.2035 321.481 64.8503 337.2 92.1098Z" fill="#FF8C59" stroke="white" stroke-width="4.61296"/>
<path d="M309.035 55.264C341.901 88.3375 360.582 132.881 361.18 179.444H184.072L185.184 2.33963C231.742 3.22999 276.168 22.1904 309.035 55.264Z" fill="#FF7B41" stroke="white" stroke-width="4.61296"/>
<path d="M337.341 92.3541C352.587 118.889 360.787 148.87 361.18 179.444H185.765L274.108 27.899C300.324 43.6364 322.095 65.8197 337.341 92.3541Z" fill="#FF6B2A" stroke="white" stroke-width="4.61296"/>
<path d="M190.395 179.444L338.477 94.3614C352.994 120.396 360.797 149.638 361.18 179.444H190.395Z" fill="#FF5A12" stroke="white" stroke-width="4.61296"/>
<path d="M295.932 69.7569C325.58 99.4047 342.47 139.425 343.069 181.289L21.118 181.289C21.7171 139.425 38.6072 99.4047 68.255 69.7568C98.4469 39.565 139.396 22.6033 182.094 22.6034C224.791 22.6034 265.74 39.565 295.932 69.7569Z" fill="url(#paint0_linear_497_684)" stroke="white" stroke-width="4.61296"/>
<path d="M259.631 64.6155L233.585 120.31L175.606 199.743L165.819 193.142L217.75 109.628L259.631 64.6155Z" fill="#323232"/>
<circle cx="181.597" cy="181.904" r="15.2227" fill="#323232" stroke="white" stroke-width="3.0753"/>
<defs>
<linearGradient id="paint0_linear_497_684" x1="182.094" y1="20.2969" x2="182.094" y2="183.595" gradientUnits="userSpaceOnUse">
<stop stop-color="#DDDDDD"/>
<stop offset="0.489583" stop-color="white"/>
</linearGradient>
</defs>
</svg>
